<svg viewBox="0 0 30 30" fill="none" xmlns="http://www.w3.org/2000/svg">
    <rect width="30" height="30" fill="#F9F8F5" />
    <path
        d="M9.69934 21.5522C8.82818 21.5522 8.0429 21.405 7.34352 21.1105C6.64413 20.8037 6.09198 20.362 5.68707 19.7853C5.28217 19.2087 5.07971 18.5154 5.07971 17.7056C5.07971 17.1534 5.19628 16.7915 5.42941 16.6197C5.6748 16.4356 6.0429 16.3436 6.5337 16.3436C6.9018 16.3436 7.22082 16.405 7.49075 16.5277C7.77296 16.6381 7.92634 16.8651 7.95088 17.2087C7.97542 17.4418 8.01836 17.7056 8.07971 18.0001C8.14106 18.2823 8.28217 18.5277 8.50302 18.7363C8.72388 18.9448 9.07971 19.0491 9.57051 19.0491C10.1104 19.0491 10.5214 18.9019 10.8036 18.6074C11.0981 18.3007 11.2454 17.8344 11.2454 17.2087V10.4909H9.64413C9.37419 10.4909 9.15947 10.3682 8.99996 10.1228C8.85272 9.86509 8.7791 9.56448 8.7791 9.22092C8.7791 8.92644 8.84658 8.65037 8.98155 8.3927C9.11652 8.12276 9.33738 7.98779 9.64413 7.98779H12.865C13.184 7.98779 13.4724 8.06141 13.73 8.20865C13.9877 8.35589 14.1165 8.57675 14.1165 8.87123V17.2087C14.1165 18.2639 13.9141 19.1105 13.5092 19.7485C13.1165 20.3866 12.5828 20.8467 11.9079 21.1289C11.2454 21.4111 10.5092 21.5522 9.69934 21.5522Z"
        fill="#1D1F21" />
    <path
        d="M17.4819 21.4418C17.1261 21.4418 16.7948 21.3682 16.488 21.2209C16.1935 21.0737 16.0463 20.8528 16.0463 20.5583V8.87123C16.0463 8.57675 16.1751 8.35589 16.4328 8.20865C16.7027 8.06141 16.9911 7.98779 17.2978 7.98779H23.6843C23.9911 7.98779 24.2119 8.12276 24.3469 8.3927C24.4819 8.65037 24.5494 8.92644 24.5494 9.22092C24.5494 9.56448 24.4758 9.86509 24.3285 10.1228C24.1813 10.3682 23.9666 10.4909 23.6843 10.4909H18.9175V13.6013H21.6966C21.9788 13.6013 22.1935 13.7179 22.3408 13.951C22.488 14.1718 22.5616 14.4295 22.5616 14.724C22.5616 14.9694 22.4942 15.2148 22.3592 15.4602C22.2242 15.6933 22.0034 15.8099 21.6966 15.8099H18.9175V20.5583C18.9175 20.8528 18.7641 21.0737 18.4573 21.2209C18.1629 21.3682 17.8377 21.4418 17.4819 21.4418Z"
        fill="#1D1F21" />
</svg>
